<mxfile host="app.diagrams.net" modified="2023-09-20T06:33:17.251Z" agent="Mozilla/5.0 (Windows NT 10.0; Win64; x64) AppleWebKit/537.36 (KHTML, like Gecko) Chrome/116.0.0.0 Whale/3.22.205.18 Safari/537.36" etag="z2H6AO-Fi0VDosEo4BpN" version="21.7.5" type="github">
  <diagram name="페이지-1" id="gNl_fFNE6SNN7I_ojutP">
    <mxGraphModel dx="4627" dy="2550" grid="1" gridSize="10" guides="1" tooltips="1" connect="1" arrows="1" fold="1" page="1" pageScale="1" pageWidth="827" pageHeight="1169" math="0" shadow="0">
      <root>
        <mxCell id="0" />
        <mxCell id="1" parent="0" />
        <mxCell id="DlIR4MhjiIiRReW8OJtA-3" value="&lt;span data-whi=&quot;{:objects [{:deleted nil, :workspace-id #uuid &amp;quot;bb9c6126-cc52-4984-8532-ed0b203b17b8&amp;quot;, :owned? true, :item-id #uuid &amp;quot;e81c4bff-89f1-437e-abb5-410973580aad&amp;quot;, :created #inst &amp;quot;2023-09-20T04:39:28.273-00:00&amp;quot;, :stag 100, :item-type :object, :parent-id #uuid &amp;quot;343fd05a-a7f6-4d36-b228-2cf3a70af404&amp;quot;, :access :readwrite, :data {:text-anchor {:x -204, :y 50}, :path #paper &amp;quot;[\&amp;quot;Path\&amp;quot;,{\&amp;quot;applyMatrix\&amp;quot;:true,\&amp;quot;segments\&amp;quot;:[[-244,50],[-164,50]]}]&amp;quot;, :to-id #uuid &amp;quot;67aca662-2d04-4060-9e74-e42edd5779af&amp;quot;, :from-id #uuid &amp;quot;d65e8cd2-e8dc-410f-abd9-3dc8793d27bc&amp;quot;, :v 44, :to-rel {:rx 0.5, :ry 0.5, :a :x}, :from-rel {:rx 0.5, :ry 0.5, :a :x}, :object-type :connector, :points [], :to-endpoint :arrow, :style {:color :silver}, :to-pos {:x -164, :y 50}, :gfx [:g {} [:line {:stroke &amp;quot;#788896&amp;quot;, :fill :none, :stroke-linejoin :round, :y1 50, :stroke-linecap :round, :stroke-width 4, :x1 -244, :y2 50, :x2 -168.00000000000009}] nil [:polygon {:points &amp;quot;-171.0921,44.45905 -164,50 -171.0921,55.54095&amp;quot;, :fill &amp;quot;#788896&amp;quot;, :stroke &amp;quot;#788896&amp;quot;, :stroke-width 2, :stroke-linecap :round, :stroke-linejoin :round}]], :baseline-path #paper &amp;quot;[\&amp;quot;Path\&amp;quot;,{\&amp;quot;applyMatrix\&amp;quot;:true,\&amp;quot;segments\&amp;quot;:[[-348,50],[-60,50]]}]&amp;quot;, :order [11], :from-pos {:x -244, :y 50}, :connector-type :elbow, :cont-path #paper &amp;quot;[\&amp;quot;Path\&amp;quot;,{\&amp;quot;applyMatrix\&amp;quot;:true,\&amp;quot;segments\&amp;quot;:[[-244,50],[-164,50]]}]&amp;quot;, :rect {:x -248, :y 46, :width 89, :height 8}, :edges [{:y 50, :offset 288}], :text &amp;quot;&amp;quot;}} {:deleted nil, :workspace-id #uuid &amp;quot;bb9c6126-cc52-4984-8532-ed0b203b17b8&amp;quot;, :owned? true, :item-id #uuid &amp;quot;ccf55881-0cd9-4ac4-ad06-571ceee103eb&amp;quot;, :created #inst &amp;quot;2023-09-20T05:43:49.317-00:00&amp;quot;, :stag 137, :item-type :object, :parent-id #uuid &amp;quot;343fd05a-a7f6-4d36-b228-2cf3a70af404&amp;quot;, :access :readwrite, :data {:path #paper &amp;quot;[\&amp;quot;Path\&amp;quot;,{\&amp;quot;applyMatrix\&amp;quot;:true,\&amp;quot;segments\&amp;quot;:[[[135,910],[0,0],[-1.65685,0]],[[132,907],[0,1.65685],[0,0]],[[132,817],[0,0],[0,-1.65685]],[[135,814],[-1.65685,0],[0,0]],[[321,814],[0,0],[1.65685,0]],[[324,817],[0,-1.65685],[0,0]],[[324,907],[0,0],[0,1.65685]],[[321,910],[1.65685,0],[0,0]]],\&amp;quot;closed\&amp;quot;:true}]&amp;quot;, :text-rect {:x 144, :y 838, :width 168, :height 48}, :shape-type :rect, :v 44, :content {#uuid &amp;quot;9db42e71-be68-4091-af11-07caced82d23&amp;quot; {:tag :p, :idx &amp;quot;12/;F`6/&amp;quot;, :content [&amp;quot;의무없는 일을 하게함(숙제)&amp;quot;]}}, :object-type :shape, :only-block-tag :p, :style {:color :dark-green, :deco :fill}, :hitboxes nil, :gfx [:g [:rect {:x 132, :y 814, :width 192, :height 96, :rx 3, :ry 3, :fill &amp;quot;#207868&amp;quot;}] [:g.content [:g [:g [:g [:g nil [:g nil] [:text {:fill &amp;quot;#FFFFFF&amp;quot;} [:tspan {:x 169.6800079345703, :y 856.5, :font-family &amp;quot;DIN Next, sans-serif&amp;quot;, :font-size 18, :font-style :normal, :font-weight :normal} &amp;quot;의무없는 일을 &amp;quot;]]]] [:g [:g nil [:g nil] [:text {:fill &amp;quot;#FFFFFF&amp;quot;} [:tspan {:x 177.87001037597656, :y 880.5, :font-family &amp;quot;DIN Next, sans-serif&amp;quot;, :font-size 18, :font-style :normal, :font-weight :normal} &amp;quot;하게함(숙제)&amp;quot;]]]]]]]], :marks #{}, :order [18 1], :rect {:x 132, :y 814, :width 192, :height 96}, :ref-item-deps nil}} {:deleted nil, :workspace-id #uuid &amp;quot;bb9c6126-cc52-4984-8532-ed0b203b17b8&amp;quot;, :owned? true, :item-id #uuid &amp;quot;674d89b8-79aa-4fbf-9615-ede1a4dd08b4&amp;quot;, :created #inst &amp;quot;2023-09-20T04:39:38.077-00:00&amp;quot;, :stag 139, :item-type :object, :parent-id #uuid &amp;quot;343fd05a-a7f6-4d36-b228-2cf3a70af404&amp;quot;, :access :readwrite, :data {:path #paper &amp;quot;[\&amp;quot;Path\&amp;quot;,{\&amp;quot;applyMatrix\&amp;quot;:true,\&amp;quot;segments\&amp;quot;:[[[-153,276],[0,0],[-1.65685,0]],[[-156,273],[0,1.65685],[0,0]],[[-156,183],[0,0],[0,-1.65685]],[[-153,180],[-1.65685,0],[0,0]],[[33,180],[0,0],[1.65685,0]],[[36,183],[0,-1.65685],[0,0]],[[36,273],[0,0],[0,1.65685]],[[33,276],[1.65685,0],[0,0]]],\&amp;quot;closed\&amp;quot;:true}]&amp;quot;, :text-rect {:x -144, :y 216, :width 168, :height 24}, :shape-type :rect, :v 44, :content {#uuid &amp;quot;6736ee68-ce7f-41af-a61e-a7e00fe4d5cc&amp;quot; {:tag :p, :idx &amp;quot;12/;F`6/&amp;quot;, :content [&amp;quot;녹음파일&amp;quot;]}}, :object-type :shape, :only-block-tag :p, :style {:color :purple, :deco :fill}, :hitboxes nil, :gfx [:g [:rect {:x -156, :y 180, :width 192, :height 96, :rx 3, :ry 3, :fill &amp;quot;#BD34D1&amp;quot;}] [:g.content [:g [:g [:g [:g nil [:g nil] [:text {:fill &amp;quot;#FFFFFF&amp;quot;} [:tspan {:x -96, :y 234.5, :font-family &amp;quot;DIN Next, sans-serif&amp;quot;, :font-size 18, :font-style :normal, :font-weight :normal} &amp;quot;녹음파일&amp;quot;]]]]]]]], :marks #{}, :order [3 1], :rect {:x -156, :y 180, :width 192, :height 96}, :ref-item-deps nil}} {:deleted nil, :workspace-id #uuid &amp;quot;bb9c6126-cc52-4984-8532-ed0b203b17b8&amp;quot;, :owned? true, :item-id #uuid &amp;quot;2a6215f9-68b9-4cd9-bd85-70c2a61bac49&amp;quot;, :created #inst &amp;quot;2023-09-20T04:38:34.362-00:00&amp;quot;, :stag 108, :item-type :object, :parent-id #uuid &amp;quot;343fd05a-a7f6-4d36-b228-2cf3a70af404&amp;quot;, :access :readwrite, :data {:path #paper &amp;quot;[\&amp;quot;Path\&amp;quot;,{\&amp;quot;applyMatrix\&amp;quot;:true,\&amp;quot;segments\&amp;quot;:[[[-441,588],[0,0],[-1.65685,0]],[[-444,585],[0,1.65685],[0,0]],[[-444,495],[0,0],[0,-1.65685]],[[-441,492],[-1.65685,0],[0,0]],[[-255,492],[0,0],[1.65685,0]],[[-252,495],[0,-1.65685],[0,0]],[[-252,585],[0,0],[0,1.65685]],[[-255,588],[1.65685,0],[0,0]]],\&amp;quot;closed\&amp;quot;:true}]&amp;quot;, :text-rect {:x -432, :y 516, :width 168, :height 48}, :shape-type :rect, :v 44, :content {#uuid &amp;quot;8bcae58b-3277-4ffe-977c-f49f814dfe22&amp;quot; {:tag :p, :idx &amp;quot;1/;F`6/&amp;quot;, :content [&amp;quot;정보통신망법&amp;quot;]}, #uuid &amp;quot;037970db-b52a-466e-a3e5-2f5b6ede0aaa&amp;quot; {:tag :p, :idx &amp;quot;2/;F`6/&amp;quot;, :content [&amp;quot;모욕등&amp;quot;]}}, :object-type :shape, :only-block-tag :p, :style {:color :blue, :deco :fill}, :hitboxes nil, :gfx [:g [:rect {:x -444, :y 492, :width 192, :height 96, :rx 3, :ry 3, :fill &amp;quot;#2C88D9&amp;quot;}] [:g.content [:g [:g [:g [:g nil [:g nil] [:text {:fill &amp;quot;#FFFFFF&amp;quot;} [:tspan {:x -402, :y 534.5, :font-family &amp;quot;DIN Next, sans-serif&amp;quot;, :font-size 18, :font-style :normal, :font-weight :normal} &amp;quot;정보통신망법&amp;quot;]]]]]] [:g [:g [:g [:g nil [:g nil] [:text {:fill &amp;quot;#FFFFFF&amp;quot;} [:tspan {:x -375, :y 558.5, :font-family &amp;quot;DIN Next, sans-serif&amp;quot;, :font-size 18, :font-style :normal, :font-weight :normal} &amp;quot;모욕등&amp;quot;]]]]]]]], :marks #{}, :order [8], :rect {:x -444, :y 492, :width 192, :height 96}, :ref-item-deps nil}} {:deleted nil, :workspace-id #uuid &amp;quot;bb9c6126-cc52-4984-8532-ed0b203b17b8&amp;quot;, :owned? true, :item-id #uuid &amp;quot;ef4b7e3e-8cf0-4afe-b9d6-9c050b8c3918&amp;quot;, :created #inst &amp;quot;2023-09-20T04:37:35.802-00:00&amp;quot;, :stag 104, :item-type :object, :parent-id #uuid &amp;quot;343fd05a-a7f6-4d36-b228-2cf3a70af404&amp;quot;, :access :readwrite, :data {:path #paper &amp;quot;[\&amp;quot;Path\&amp;quot;,{\&amp;quot;applyMatrix\&amp;quot;:true,\&amp;quot;segments\&amp;quot;:[[[-441,276],[0,0],[-1.65685,0]],[[-444,273],[0,1.65685],[0,0]],[[-444,183],[0,0],[0,-1.65685]],[[-441,180],[-1.65685,0],[0,0]],[[-255,180],[0,0],[1.65685,0]],[[-252,183],[0,-1.65685],[0,0]],[[-252,273],[0,0],[0,1.65685]],[[-255,276],[1.65685,0],[0,0]]],\&amp;quot;closed\&amp;quot;:true}]&amp;quot;, :text-rect {:x -432, :y 204, :width 168, :height 48}, :shape-type :rect, :v 44, :content {#uuid &amp;quot;8bcae58b-3277-4ffe-977c-f49f814dfe22&amp;quot; {:tag :p, :idx &amp;quot;1/;F`6/&amp;quot;, :content [&amp;quot;폭력&amp;quot;]}, #uuid &amp;quot;1443edcc-779d-4e1d-a790-395a8e31fe2f&amp;quot; {:tag :p, :idx &amp;quot;2/;F`6/&amp;quot;, :content [&amp;quot;(방문부수기)&amp;quot;]}}, :object-type :shape, :only-block-tag :p, :style {:color :silver, :deco :fill}, :hitboxes nil, :gfx [:g [:rect {:x -444, :y 180, :width 192, :height 96, :rx 3, :ry 3, :fill &amp;quot;#788896&amp;quot;}] [:g.content [:g [:g [:g [:g nil [:g nil] [:text {:fill &amp;quot;#FFFFFF&amp;quot;} [:tspan {:x -366, :y 222.5, :font-family &amp;quot;DIN Next, sans-serif&amp;quot;, :font-size 18, :font-style :normal, :font-weight :normal} &amp;quot;폭력&amp;quot;]]]]]] [:g [:g [:g [:g nil [:g nil] [:text {:fill &amp;quot;#FFFFFF&amp;quot;} [:tspan {:x -398.12998962402344, :y 246.5, :font-family &amp;quot;DIN Next, sans-serif&amp;quot;, :font-size 18, :font-style :normal, :font-weight :normal} &amp;quot;(방문부수기)&amp;quot;]]]]]]]], :marks #{}, :order [4], :rect {:x -444, :y 180, :width 192, :height 96}, :ref-item-deps nil}} {:deleted nil, :workspace-id #uuid &amp;quot;bb9c6126-cc52-4984-8532-ed0b203b17b8&amp;quot;, :owned? true, :item-id #uuid &amp;quot;0cd49b67-8fb0-477c-9ce2-20f87aa85f39&amp;quot;, :created #inst &amp;quot;2023-09-20T06:21:55.088-00:00&amp;quot;, :stag 154, :item-type :object, :parent-id #uuid &amp;quot;343fd05a-a7f6-4d36-b228-2cf3a70af404&amp;quot;, :access :readwrite, :data {:text-anchor {:x 84, :y 546}, :path #paper &amp;quot;[\&amp;quot;Path\&amp;quot;,{\&amp;quot;applyMatrix\&amp;quot;:true,\&amp;quot;segments\&amp;quot;:[[44,540],[[78,540],[0,0],[3.3137,0]],[[84,546],[0,-3.3137],[0,0]],[[84,546],[0,0],[0,3.3137]],[[90,552],[-3.3137,0],[0,0]],[124,552]]}]&amp;quot;, :to-id #uuid &amp;quot;4e2498a4-dc7c-4f6f-a8ac-b7b2bab0413b&amp;quot;, :from-id #uuid &amp;quot;b7e89a46-48b3-4f11-a034-e4df8938dd7d&amp;quot;, :v 44, :to-rel {:rx 0.5, :ry 0.5, :a :x}, :from-rel {:rx 0.5, :ry 0.5, :a :x}, :object-type :connector, :points [], :to-endpoint :arrow, :style {:color :silver}, :to-pos {:x 124, :y 552}, :gfx [:g {} [:path {:d &amp;quot;M44,540h34c3.3137,0 6,2.6863 6,6v0c0,3.3137 2.6863,6 6,6h30&amp;quot;, :fill :none, :stroke &amp;quot;#788896&amp;quot;, :stroke-linecap :round, :stroke-linejoin :round, :stroke-width 4}] nil [:polygon {:points &amp;quot;116.9079,546.45905 124,552 116.9079,557.54095&amp;quot;, :fill &amp;quot;#788896&amp;quot;, :stroke &amp;quot;#788896&amp;quot;, :stroke-width 2, :stroke-linecap :round, :stroke-linejoin :round}]], :baseline-path #paper &amp;quot;[\&amp;quot;Path\&amp;quot;,{\&amp;quot;applyMatrix\&amp;quot;:true,\&amp;quot;segments\&amp;quot;:[[-60,540],[84,540],[84,552],[228,552]]}]&amp;quot;, :order [23], :from-pos {:x 44, :y 540}, :connector-type :elbow, :cont-path #paper &amp;quot;[\&amp;quot;Path\&amp;quot;,{\&amp;quot;applyMatrix\&amp;quot;:true,\&amp;quot;segments\&amp;quot;:[[44,540],[[78,540],[0,0],[3.3137,0]],[[84,546],[0,-3.3137],[0,0]],[[84,546],[0,0],[0,3.3137]],[[90,552],[-3.3137,0],[0,0]],[124,552]]}]&amp;quot;, :rect {:x 39, :y 536, :width 88, :height 20}, :edges [{:y 540, :offset 144} {:x 84, :offset 156} {:y 552, :offset 300}], :text &amp;quot;&amp;quot;}} {:deleted nil, :workspace-id #uuid &amp;quot;bb9c6126-cc52-4984-8532-ed0b203b17b8&amp;quot;, :owned? true, :item-id #uuid &amp;quot;d4b8e47c-c376-440e-898e-c46a47b4f3d7&amp;quot;, :created #inst &amp;quot;2023-09-20T04:39:38.090-00:00&amp;quot;, :stag 57, :item-type :object, :parent-id #uuid &amp;quot;343fd05a-a7f6-4d36-b228-2cf3a70af404&amp;quot;, :access :readwrite, :data {:text-anchor {:x -204, :y 228}, :path #paper &amp;quot;[\&amp;quot;Path\&amp;quot;,{\&amp;quot;applyMatrix\&amp;quot;:true,\&amp;quot;segments\&amp;quot;:[[-244,228],[-164,228]]}]&amp;quot;, :to-id #uuid &amp;quot;674d89b8-79aa-4fbf-9615-ede1a4dd08b4&amp;quot;, :from-id #uuid &amp;quot;ef4b7e3e-8cf0-4afe-b9d6-9c050b8c3918&amp;quot;, :v 44, :to-rel {:rx 0.5, :ry 0.5, :a :x}, :from-rel {:rx 0.5, :ry 0.5, :a :x}, :object-type :connector, :points [], :to-endpoint :arrow, :style {:color :silver}, :to-pos {:x -164, :y 228}, :gfx [:g {} [:line {:stroke &amp;quot;#788896&amp;quot;, :fill :none, :stroke-linejoin :round, :y1 228, :stroke-linecap :round, :stroke-width 4, :x1 -244, :y2 228, :x2 -168.00000000000009}] nil [:polygon {:points &amp;quot;-171.0921,222.45905 -164,228 -171.0921,233.54095&amp;quot;, :fill &amp;quot;#788896&amp;quot;, :stroke &amp;quot;#788896&amp;quot;, :stroke-width 2, :stroke-linecap :round, :stroke-linejoin :round}]], :baseline-path #paper &amp;quot;[\&amp;quot;Path\&amp;quot;,{\&amp;quot;applyMatrix\&amp;quot;:true,\&amp;quot;segments\&amp;quot;:[[-348,228],[-60,228]]}]&amp;quot;, :order [12], :from-pos {:x -244, :y 228}, :connector-type :elbow, :cont-path #paper &amp;quot;[\&amp;quot;Path\&amp;quot;,{\&amp;quot;applyMatrix\&amp;quot;:true,\&amp;quot;segments\&amp;quot;:[[-244,228],[-164,228]]}]&amp;quot;, :rect {:x -248, :y 224, :width 89, :height 8}, :edges [{:y 228, :offset 288}], :text &amp;quot;&amp;quot;}} {:deleted nil, :workspace-id #uuid &amp;quot;bb9c6126-cc52-4984-8532-ed0b203b17b8&amp;quot;, :owned? true, :item-id #uuid &amp;quot;b30a22cd-c920-4146-b489-2b8cc3659669&amp;quot;, :created #inst &amp;quot;2023-09-20T04:40:25.650-00:00&amp;quot;, :stag 113, :item-type :object, :parent-id #uuid &amp;quot;343fd05a-a7f6-4d36-b228-2cf3a70af404&amp;quot;, :access :readwrite, :data {:path #paper &amp;quot;[\&amp;quot;Path\&amp;quot;,{\&amp;quot;applyMatrix\&amp;quot;:true,\&amp;quot;segments\&amp;quot;:[[[-441,-70],[0,0],[-1.65685,0]],[[-444,-73],[0,1.65685],[0,0]],[[-444,-163],[0,0],[0,-1.65685]],[[-441,-166],[-1.65685,0],[0,0]],[[-255,-166],[0,0],[1.65685,0]],[[-252,-163],[0,-1.65685],[0,0]],[[-252,-73],[0,0],[0,1.65685]],[[-255,-70],[1.65685,0],[0,0]]],\&amp;quot;closed\&amp;quot;:true}]&amp;quot;, :text-rect {:x -432, :y -130, :width 168, :height 24}, :shape-type :rect, :v 44, :content {#uuid &amp;quot;95361531-1bdc-47f6-afa9-0572c3b7fea2&amp;quot; {:tag :p, :idx &amp;quot;12/;F`6/&amp;quot;, :content [&amp;quot;대면협박&amp;quot;]}}, :object-type :shape, :only-block-tag :p, :style {:color :dark-purple, :deco :outline}, :hitboxes nil, :gfx [:g [:rect {:x -444, :y -166, :width 192, :height 96, :rx 3, :ry 3, :fill &amp;quot;#e3cff3&amp;quot;}] [:rect {:y -166, :stroke-dasharray nil, :rx 3, :stroke &amp;quot;#730FC3&amp;quot;, :fill :none, :stroke-linejoin :round, :width 192, :stroke-dashoffset nil, :stroke-linecap :round, :stroke-width 2, :x -444, :ry 3, :height 96}] [:g.content [:g [:g [:g [:g nil [:g nil] [:text {:fill &amp;quot;#293845&amp;quot;} [:tspan {:x -384, :y -111.5, :font-family &amp;quot;DIN Next, sans-serif&amp;quot;, :font-size 18, :font-style :normal, :font-weight :normal} &amp;quot;대면협박&amp;quot;]]]]]]]], :marks #{}, :order [17], :rect {:x -444, :y -166, :width 192, :height 96}, :ref-item-deps nil}} {:deleted nil, :workspace-id #uuid &amp;quot;bb9c6126-cc52-4984-8532-ed0b203b17b8&amp;quot;, :owned? true, :item-id #uuid &amp;quot;d6399579-24be-42e1-8b8e-570e77ece2af&amp;quot;, :created #inst &amp;quot;2023-09-20T04:38:14.825-00:00&amp;quot;, :stag 106, :item-type :object, :parent-id #uuid &amp;quot;343fd05a-a7f6-4d36-b228-2cf3a70af404&amp;quot;, :access :readwrite, :data {:path #paper &amp;quot;[\&amp;quot;Path\&amp;quot;,{\&amp;quot;applyMatrix\&amp;quot;:true,\&amp;quot;segments\&amp;quot;:[[[-441,420],[0,0],[-1.65685,0]],[[-444,417],[0,1.65685],[0,0]],[[-444,327],[0,0],[0,-1.65685]],[[-441,324],[-1.65685,0],[0,0]],[[-255,324],[0,0],[1.65685,0]],[[-252,327],[0,-1.65685],[0,0]],[[-252,417],[0,0],[0,1.65685]],[[-255,420],[1.65685,0],[0,0]]],\&amp;quot;closed\&amp;quot;:true}]&amp;quot;, :text-rect {:x -432, :y 348, :width 168, :height 48}, :shape-type :rect, :v 44, :content {#uuid &amp;quot;8bcae58b-3277-4ffe-977c-f49f814dfe22&amp;quot; {:tag :p, :idx &amp;quot;1/;F`6/&amp;quot;, :content [&amp;quot;동생(박승언)에&amp;quot;]}, #uuid &amp;quot;2d476f08-add6-4abc-9146-d33abd6ff215&amp;quot; {:tag :p, :idx &amp;quot;2/;F`6/&amp;quot;, :content [&amp;quot;폭력행위&amp;quot;]}}, :object-type :shape, :only-block-tag :p, :style {:color :purple, :deco :fill}, :hitboxes nil, :gfx [:g [:rect {:x -444, :y 324, :width 192, :height 96, :rx 3, :ry 3, :fill &amp;quot;#BD34D1&amp;quot;}] [:g.content [:g [:g [:g [:g nil [:g nil] [:text {:fill &amp;quot;#FFFFFF&amp;quot;} [:tspan {:x -407.12998962402344, :y 366.5, :font-family &amp;quot;DIN Next, sans-serif&amp;quot;, :font-size 18, :font-style :normal, :font-weight :normal} &amp;quot;동생(박승언)에&amp;quot;]]]]]] [:g [:g [:g [:g nil [:g nil] [:text {:fill &amp;quot;#FFFFFF&amp;quot;} [:tspan {:x -384, :y 390.5, :font-family &amp;quot;DIN Next, sans-serif&amp;quot;, :font-size 18, :font-style :normal, :font-weight :normal} &amp;quot;폭력행위&amp;quot;]]]]]]]], :marks #{}, :order [6], :rect {:x -444, :y 324, :width 192, :height 96}, :ref-item-deps nil}} {:deleted nil, :workspace-id #uuid &amp;quot;bb9c6126-cc52-4984-8532-ed0b203b17b8&amp;quot;, :owned? true, :item-id #uuid &amp;quot;5b645cfb-4948-4009-89b8-c3ca7f98d27b&amp;quot;, :created #inst &amp;quot;2023-09-20T05:38:00.639-00:00&amp;quot;, :stag 122, :item-type :object, :parent-id #uuid &amp;quot;343fd05a-a7f6-4d36-b228-2cf3a70af404&amp;quot;, :access :readwrite, :data {:text-anchor {:x -204, :y 862}, :path #paper &amp;quot;[\&amp;quot;Path\&amp;quot;,{\&amp;quot;applyMatrix\&amp;quot;:true,\&amp;quot;segments\&amp;quot;:[[-244,862],[-164,862]]}]&amp;quot;, :to-id #uuid &amp;quot;e9cf9000-9a35-465e-88cf-2173711c40ac&amp;quot;, :from-id #uuid &amp;quot;4ecf2405-69de-4a21-a240-6894c0bf7910&amp;quot;, :v 44, :to-rel {:rx 0.5, :ry 0.5, :a :x}, :from-rel {:rx 0.5, :ry 0.5, :a :x}, :object-type :connector, :points [], :to-endpoint :arrow, :style {:color :silver}, :to-pos {:x -164, :y 862}, :gfx [:g {} [:line {:stroke &amp;quot;#788896&amp;quot;, :fill :none, :stroke-linejoin :round, :y1 862, :stroke-linecap :round, :stroke-width 4, :x1 -244, :y2 862, :x2 -168.00000000000009}] nil [:polygon {:points &amp;quot;-171.0921,856.45905 -164,862 -171.0921,867.54095&amp;quot;, :fill &amp;quot;#788896&amp;quot;, :stroke &amp;quot;#788896&amp;quot;, :stroke-width 2, :stroke-linecap :round, :stroke-linejoin :round}]], :baseline-path #paper &amp;quot;[\&amp;quot;Path\&amp;quot;,{\&amp;quot;applyMatrix\&amp;quot;:true,\&amp;quot;segments\&amp;quot;:[[-348,862],[-60,862]]}]&amp;quot;, :order [20], :from-pos {:x -244, :y 862}, :connector-type :elbow, :cont-path #paper &amp;quot;[\&amp;quot;Path\&amp;quot;,{\&amp;quot;applyMatrix\&amp;quot;:true,\&amp;quot;segments\&amp;quot;:[[-244,862],[-164,862]]}]&amp;quot;, :rect {:x -248, :y 858, :width 89, :height 8}, :edges [{:y 862, :offset 288}], :text &amp;quot;&amp;quot;}} {:deleted nil, :workspace-id #uuid &amp;quot;bb9c6126-cc52-4984-8532-ed0b203b17b8&amp;quot;, :owned? true, :item-id #uuid &amp;quot;d65e8cd2-e8dc-410f-abd9-3dc8793d27bc&amp;quot;, :created #inst &amp;quot;2023-09-20T04:37:20.673-00:00&amp;quot;, :stag 101, :item-type :object, :parent-id #uuid &amp;quot;343fd05a-a7f6-4d36-b228-2cf3a70af404&amp;quot;, :access :readwrite, :data {:path #paper &amp;quot;[\&amp;quot;Path\&amp;quot;,{\&amp;quot;applyMatrix\&amp;quot;:true,\&amp;quot;segments\&amp;quot;:[[[-441,98],[0,0],[-1.65685,0]],[[-444,95],[0,1.65685],[0,0]],[[-444,5],[0,0],[0,-1.65685]],[[-441,2],[-1.65685,0],[0,0]],[[-255,2],[0,0],[1.65685,0]],[[-252,5],[0,-1.65685],[0,0]],[[-252,95],[0,0],[0,1.65685]],[[-255,98],[1.65685,0],[0,0]]],\&amp;quot;closed\&amp;quot;:true}]&amp;quot;, :text-rect {:x -432, :y 38, :width 168, :height 24}, :shape-type :rect, :v 44, :content {#uuid &amp;quot;e8cbfc6c-a4c9-415e-8ef6-b663139bd064&amp;quot; {:tag :p, :idx &amp;quot;12&amp;quot;, :content [&amp;quot;대면욕설(음성)&amp;quot;]}}, :object-type :shape, :only-block-tag :p, :style {:color :orange, :deco :fill}, :hitboxes nil, :gfx [:g [:rect {:x -444, :y 2, :width 192, :height 96, :rx 3, :ry 3, :fill &amp;quot;#E8833A&amp;quot;}] [:g.content [:g [:g [:g [:g nil [:g nil] [:text {:fill &amp;quot;#FFFFFF&amp;quot;} [:tspan {:x -407.12998962402344, :y 56.5, :font-family &amp;quot;DIN Next, sans-serif&amp;quot;, :font-size 18, :font-style :normal, :font-weight :normal} &amp;quot;대면욕설(음성)&amp;quot;]]]]]]]], :marks #{}, :order [2], :rect {:x -444, :y 2, :width 192, :height 96}, :ref-item-deps nil}} {:deleted nil, :workspace-id #uuid &amp;quot;bb9c6126-cc52-4984-8532-ed0b203b17b8&amp;quot;, :owned? true, :item-id #uuid &amp;quot;d070997f-4d30-46e9-a8cb-d33606263bda&amp;quot;, :created #inst &amp;quot;2023-09-20T04:39:48.523-00:00&amp;quot;, :stag 60, :item-type :object, :parent-id #uuid &amp;quot;343fd05a-a7f6-4d36-b228-2cf3a70af404&amp;quot;, :access :readwrite, :data {:text-anchor {:x -204, :y 540}, :path #paper &amp;quot;[\&amp;quot;Path\&amp;quot;,{\&amp;quot;applyMatrix\&amp;quot;:true,\&amp;quot;segments\&amp;quot;:[[-244,540],[-164,540]]}]&amp;quot;, :to-id #uuid &amp;quot;b7e89a46-48b3-4f11-a034-e4df8938dd7d&amp;quot;, :from-id #uuid &amp;quot;2a6215f9-68b9-4cd9-bd85-70c2a61bac49&amp;quot;, :v 44, :to-rel {:rx 0.5, :ry 0.5, :a :x}, :from-rel {:rx 0.5, :ry 0.5, :a :x}, :object-type :connector, :points [], :to-endpoint :arrow, :style {:color :silver}, :to-pos {:x -164, :y 540}, :gfx [:g {} [:line {:stroke &amp;quot;#788896&amp;quot;, :fill :none, :stroke-linejoin :round, :y1 540, :stroke-linecap :round, :stroke-width 4, :x1 -244, :y2 540, :x2 -168.00000000000009}] nil [:polygon {:points &amp;quot;-171.0921,534.45905 -164,540 -171.0921,545.54095&amp;quot;, :fill &amp;quot;#788896&amp;quot;, :stroke &amp;quot;#788896&amp;quot;, :stroke-width 2, :stroke-linecap :round, :stroke-linejoin :round}]], :baseline-path #paper &amp;quot;[\&amp;quot;Path\&amp;quot;,{\&amp;quot;applyMatrix\&amp;quot;:true,\&amp;quot;segments\&amp;quot;:[[-348,540],[-60,540]]}]&amp;quot;, :order [13], :from-pos {:x -244, :y 540}, :connector-type :elbow, :cont-path #paper &amp;quot;[\&amp;quot;Path\&amp;quot;,{\&amp;quot;applyMatrix\&amp;quot;:true,\&amp;quot;segments\&amp;quot;:[[-244,540],[-164,540]]}]&amp;quot;, :rect {:x -248, :y 536, :width 89, :height 8}, :edges [{:y 540, :offset 288}], :text &amp;quot;&amp;quot;}} {:deleted nil, :workspace-id #uuid &amp;quot;bb9c6126-cc52-4984-8532-ed0b203b17b8&amp;quot;, :owned? true, :item-id #uuid &amp;quot;4e2498a4-dc7c-4f6f-a8ac-b7b2bab0413b&amp;quot;, :created #inst &amp;quot;2023-09-20T06:21:55.071-00:00&amp;quot;, :stag 156, :item-type :object, :parent-id #uuid &amp;quot;343fd05a-a7f6-4d36-b228-2cf3a70af404&amp;quot;, :access :readwrite, :data {:path #paper &amp;quot;[\&amp;quot;Path\&amp;quot;,{\&amp;quot;applyMatrix\&amp;quot;:true,\&amp;quot;segments\&amp;quot;:[[[135,612],[0,0],[-1.65685,0]],[[132,609],[0,1.65685],[0,0]],[[132,495],[0,0],[0,-1.65685]],[[135,492],[-1.65685,0],[0,0]],[[321,492],[0,0],[1.65685,0]],[[324,495],[0,-1.65685],[0,0]],[[324,609],[0,0],[0,1.65685]],[[321,612],[1.65685,0],[0,0]]],\&amp;quot;closed\&amp;quot;:true}]&amp;quot;, :text-rect {:x 144, :y 504, :width 168, :height 96}, :shape-type :rect, :v 44, :content {#uuid &amp;quot;ee133fd7-d751-4bdc-9f6d-98f58e7ec3f0&amp;quot; {:tag :p, :idx &amp;quot;12/;F`6/&amp;quot;, :content [&amp;quot;동법74조&amp;quot;]}, #uuid &amp;quot;9356f29c-ace6-4ba7-817b-724242013d8a&amp;quot; {:tag :p, :idx &amp;quot;13/;F`6/&amp;quot;, :content [&amp;quot;공포심,불안감 유발문언의 반복적 도달&amp;quot;]}}, :object-type :shape, :only-block-tag :p, :style {:color :silver, :deco :fill}, :hitboxes nil, :gfx [:g [:rect {:x 132, :y 492, :width 192, :height 120, :rx 3, :ry 3, :fill &amp;quot;#788896&amp;quot;}] [:g.content [:g [:g [:g [:g nil [:g nil] [:text {:fill &amp;quot;#FFFFFF&amp;quot;} [:tspan {:x 191.24400329589844, :y 522.5, :font-family &amp;quot;DIN Next, sans-serif&amp;quot;, :font-size 18, :font-style :normal, :font-weight :normal} &amp;quot;동법74조&amp;quot;]]]]]] [:g [:g [:g [:g nil [:g nil] [:text {:fill &amp;quot;#FFFFFF&amp;quot;} [:tspan {:x 169.77000427246094, :y 546.5, :font-family &amp;quot;DIN Next, sans-serif&amp;quot;, :font-size 18, :font-style :normal, :font-weight :normal} &amp;quot;공포심,불안감 &amp;quot;]]]] [:g [:g nil [:g nil] [:text {:fill &amp;quot;#FFFFFF&amp;quot;} [:tspan {:x 151.6800079345703, :y 570.5, :font-family &amp;quot;DIN Next, sans-serif&amp;quot;, :font-size 18, :font-style :normal, :font-weight :normal} &amp;quot;유발문언의 반복적 &amp;quot;]]]] [:g [:g nil [:g nil] [:text {:fill &amp;quot;#FFFFFF&amp;quot;} [:tspan {:x 210, :y 594.5, :font-family &amp;quot;DIN Next, sans-serif&amp;quot;, :font-size 18, :font-style :normal, :font-weight :normal} &amp;quot;도달&amp;quot;]]]]]]]], :marks #{}, :order [8 0 1], :rect {:x 132, :y 492, :width 192, :height 120}, :ref-item-deps nil}} {:deleted nil, :workspace-id #uuid &amp;quot;bb9c6126-cc52-4984-8532-ed0b203b17b8&amp;quot;, :owned? true, :item-id #uuid &amp;quot;e9cf9000-9a35-465e-88cf-2173711c40ac&amp;quot;, :created #inst &amp;quot;2023-09-20T05:38:00.624-00:00&amp;quot;, :stag 129, :item-type :object, :parent-id #uuid &amp;quot;343fd05a-a7f6-4d36-b228-2cf3a70af404&amp;quot;, :access :readwrite, :data {:path #paper &amp;quot;[\&amp;quot;Path\&amp;quot;,{\&amp;quot;applyMatrix\&amp;quot;:true,\&amp;quot;segments\&amp;quot;:[[[-153,910],[0,0],[-1.65685,0]],[[-156,907],[0,1.65685],[0,0]],[[-156,817],[0,0],[0,-1.65685]],[[-153,814],[-1.65685,0],[0,0]],[[33,814],[0,0],[1.65685,0]],[[36,817],[0,-1.65685],[0,0]],[[36,907],[0,0],[0,1.65685]],[[33,910],[1.65685,0],[0,0]]],\&amp;quot;closed\&amp;quot;:true}]&amp;quot;, :text-rect {:x -144, :y 838, :width 168, :height 48}, :shape-type :rect, :v 44, :content {#uuid &amp;quot;9bb46dc8-ca21-489b-b51c-f4fbacb5a6bb&amp;quot; {:tag :p, :idx &amp;quot;12/;F`6/&amp;quot;, :content [&amp;quot;강요죄&amp;quot;]}, #uuid &amp;quot;8f5c5517-b352-4712-8336-02e08c7b545c&amp;quot; {:tag :p, :idx &amp;quot;13/;F`6/&amp;quot;, :content [&amp;quot;형법 324조&amp;quot;]}}, :object-type :shape, :only-block-tag :p, :style {:color :dark-green, :deco :fill}, :hitboxes nil, :gfx [:g [:rect {:x -156, :y 814, :width 192, :height 96, :rx 3, :ry 3, :fill &amp;quot;#207868&amp;quot;}] [:g.content [:g [:g [:g [:g nil [:g nil] [:text {:fill &amp;quot;#FFFFFF&amp;quot;} [:tspan {:x -87, :y 856.5, :font-family &amp;quot;DIN Next, sans-serif&amp;quot;, :font-size 18, :font-style :normal, :font-weight :normal} &amp;quot;강요죄&amp;quot;]]]]]] [:g [:g [:g [:g nil [:g nil] [:text {:fill &amp;quot;#FFFFFF&amp;quot;} [:tspan {:x -103.79399108886719, :y 880.5, :font-family &amp;quot;DIN Next, sans-serif&amp;quot;, :font-size 18, :font-style :normal, :font-weight :normal} &amp;quot;형법 324조&amp;quot;]]]]]]]], :marks #{}, :order [19], :rect {:x -156, :y 814, :width 192, :height 96}, :ref-item-deps nil}} {:deleted nil, :workspace-id #uuid &amp;quot;bb9c6126-cc52-4984-8532-ed0b203b17b8&amp;quot;, :owned? true, :item-id #uuid &amp;quot;a38529d6-7a51-49bf-87b8-d67d5786ed34&amp;quot;, :created #inst &amp;quot;2023-09-20T06:21:40.548-00:00&amp;quot;, :stag 142, :item-type :object, :parent-id #uuid &amp;quot;343fd05a-a7f6-4d36-b228-2cf3a70af404&amp;quot;, :access :readwrite, :data {:text-anchor {:x -204, :y 612}, :path #paper &amp;quot;[\&amp;quot;Path\&amp;quot;,{\&amp;quot;applyMatrix\&amp;quot;:true,\&amp;quot;segments\&amp;quot;:[[-244,540],[[-219,540],[0,0],[8.28426,0]],[[-204,555],[0,-8.28426],[0,0]],[[-204,669],[0,0],[0,8.28426]],[[-189,684],[-8.28426,0],[0,0]],[-164,684]]}]&amp;quot;, :to-id #uuid &amp;quot;30615bf0-581d-46ff-9a25-14a86ecdf98e&amp;quot;, :from-id #uuid &amp;quot;2a6215f9-68b9-4cd9-bd85-70c2a61bac49&amp;quot;, :v 44, :to-rel {:rx 0.5, :ry 0.5, :a :x}, :from-rel {:rx 0.5, :ry 0.5, :a :x}, :object-type :connector, :points [], :to-endpoint :arrow, :style {:color :silver}, :to-pos {:x -164, :y 684}, :gfx [:g {} [:path {:d &amp;quot;M-244,540h25c8.28426,0 15,6.71574 15,15v114c0,8.28426 6.71574,15 15,15h21&amp;quot;, :fill :none, :stroke &amp;quot;#788896&amp;quot;, :stroke-linecap :round, :stroke-linejoin :round, :stroke-width 4}] nil [:polygon {:points &amp;quot;-171.0921,678.45905 -164,684 -171.0921,689.54095&amp;quot;, :fill &amp;quot;#788896&amp;quot;, :stroke &amp;quot;#788896&amp;quot;, :stroke-width 2, :stroke-linecap :round, :stroke-linejoin :round}]], :baseline-path #paper &amp;quot;[\&amp;quot;Path\&amp;quot;,{\&amp;quot;applyMatrix\&amp;quot;:true,\&amp;quot;segments\&amp;quot;:[[-348,540],[-204,540],[-204,684],[-60,684]]}]&amp;quot;, :order [22], :from-pos {:x -244, :y 540}, :connector-type :elbow, :cont-path #paper &amp;quot;[\&amp;quot;Path\&amp;quot;,{\&amp;quot;applyMatrix\&amp;quot;:true,\&amp;quot;segments\&amp;quot;:[[-244,540],[[-219,540],[0,0],[8.28426,0]],[[-204,555],[0,-8.28426],[0,0]],[[-204,669],[0,0],[0,8.28426]],[[-189,684],[-8.28426,0],[0,0]],[-164,684]]}]&amp;quot;, :rect {:x -248, :y 536, :width 88, :height 152}, :edges [{:y 540, :offset 144} {:x -204, :offset 288} {:y 684, :offset 432}], :text &amp;quot;&amp;quot;}} {:deleted nil, :workspace-id #uuid &amp;quot;bb9c6126-cc52-4984-8532-ed0b203b17b8&amp;quot;, :owned? true, :item-id #uuid &amp;quot;3421167c-3414-4530-a107-b3a7e6df98f7&amp;quot;, :created #inst &amp;quot;2023-09-20T04:39:15.484-00:00&amp;quot;, :stag 110, :item-type :object, :parent-id #uuid &amp;quot;343fd05a-a7f6-4d36-b228-2cf3a70af404&amp;quot;, :access :readwrite, :data {:path #paper &amp;quot;[\&amp;quot;Path\&amp;quot;,{\&amp;quot;applyMatrix\&amp;quot;:true,\&amp;quot;segments\&amp;quot;:[[[-441,756],[0,0],[-1.65685,0]],[[-444,753],[0,1.65685],[0,0]],[[-444,663],[0,0],[0,-1.65685]],[[-441,660],[-1.65685,0],[0,0]],[[-255,660],[0,0],[1.65685,0]],[[-252,663],[0,-1.65685],[0,0]],[[-252,753],[0,0],[0,1.65685]],[[-255,756],[1.65685,0],[0,0]]],\&amp;quot;closed\&amp;quot;:true}]&amp;quot;, :text-rect {:x -432, :y 696, :width 168, :height 24}, :shape-type :rect, :v 44, :content {#uuid &amp;quot;e8cbfc6c-a4c9-415e-8ef6-b663139bd064&amp;quot; {:tag :p, :idx &amp;quot;12&amp;quot;, :content [&amp;quot;신용카드부정사용&amp;quot;]}}, :object-type :shape, :only-block-tag :p, :style {:color :dark-green, :deco :fill}, :hitboxes nil, :gfx [:g [:rect {:x -444, :y 660, :width 192, :height 96, :rx 3, :ry 3, :fill &amp;quot;#207868&amp;quot;}] [:g.content [:g [:g [:g [:g nil [:g nil] [:text {:fill &amp;quot;#FFFFFF&amp;quot;} [:tspan {:x -420, :y 714.5, :font-family &amp;quot;DIN Next, sans-serif&amp;quot;, :font-size 18, :font-style :normal, :font-weight :normal} &amp;quot;신용카드부정사용&amp;quot;]]]]]]]], :marks #{}, :order [10], :rect {:x -444, :y 660, :width 192, :height 96}, :ref-item-deps nil}} {:deleted nil, :workspace-id #uuid &amp;quot;bb9c6126-cc52-4984-8532-ed0b203b17b8&amp;quot;, :owned? true, :item-id #uuid &amp;quot;67aca662-2d04-4060-9e74-e42edd5779af&amp;quot;, :created #inst &amp;quot;2023-09-20T04:39:28.257-00:00&amp;quot;, :stag 138, :item-type :object, :parent-id #uuid &amp;quot;343fd05a-a7f6-4d36-b228-2cf3a70af404&amp;quot;, :access :readwrite, :data {:path #paper &amp;quot;[\&amp;quot;Path\&amp;quot;,{\&amp;quot;applyMatrix\&amp;quot;:true,\&amp;quot;segments\&amp;quot;:[[[-153,98],[0,0],[-1.65685,0]],[[-156,95],[0,1.65685],[0,0]],[[-156,5],[0,0],[0,-1.65685]],[[-153,2],[-1.65685,0],[0,0]],[[33,2],[0,0],[1.65685,0]],[[36,5],[0,-1.65685],[0,0]],[[36,95],[0,0],[0,1.65685]],[[33,98],[1.65685,0],[0,0]]],\&amp;quot;closed\&amp;quot;:true}]&amp;quot;, :text-rect {:x -144, :y 38, :width 168, :height 24}, :shape-type :rect, :v 44, :content {#uuid &amp;quot;40fb216c-7cf2-47c9-bc00-42e77193365d&amp;quot; {:tag :p, :idx &amp;quot;12/;F`6/&amp;quot;, :content [&amp;quot;다수녹음파일&amp;quot;]}}, :object-type :shape, :only-block-tag :p, :style {:color :dark-purple, :deco :fill}, :hitboxes nil, :gfx [:g [:rect {:x -156, :y 2, :width 192, :height 96, :rx 3, :ry 3, :fill &amp;quot;#730FC3&amp;quot;}] [:g.content [:g [:g [:g [:g nil [:g nil] [:text {:fill &amp;quot;#FFFFFF&amp;quot;} [:tspan {:x -114, :y 56.5, :font-family &amp;quot;DIN Next, sans-serif&amp;quot;, :font-size 18, :font-style :normal, :font-weight :normal} &amp;quot;다수녹음파일&amp;quot;]]]]]]]], :marks #{}, :order [1 1], :rect {:x -156, :y 2, :width 192, :height 96}, :ref-item-deps nil}} {:deleted nil, :workspace-id #uuid &amp;quot;bb9c6126-cc52-4984-8532-ed0b203b17b8&amp;quot;, :owned? true, :item-id #uuid &amp;quot;4ecf2405-69de-4a21-a240-6894c0bf7910&amp;quot;, :created #inst &amp;quot;2023-09-20T05:37:50.606-00:00&amp;quot;, :stag 120, :item-type :object, :parent-id #uuid &amp;quot;343fd05a-a7f6-4d36-b228-2cf3a70af404&amp;quot;, :access :readwrite, :data {:path #paper &amp;quot;[\&amp;quot;Path\&amp;quot;,{\&amp;quot;applyMatrix\&amp;quot;:true,\&amp;quot;segments\&amp;quot;:[[[-441,910],[0,0],[-1.65685,0]],[[-444,907],[0,1.65685],[0,0]],[[-444,817],[0,0],[0,-1.65685]],[[-441,814],[-1.65685,0],[0,0]],[[-255,814],[0,0],[1.65685,0]],[[-252,817],[0,-1.65685],[0,0]],[[-252,907],[0,0],[0,1.65685]],[[-255,910],[1.65685,0],[0,0]]],\&amp;quot;closed\&amp;quot;:true}]&amp;quot;, :text-rect {:x -432, :y 850, :width 168, :height 24}, :shape-type :rect, :v 44, :content {#uuid &amp;quot;0c2ace28-f984-411f-b1b7-414f91110d85&amp;quot; {:tag :p, :idx &amp;quot;12/;F`6/&amp;quot;, :content [&amp;quot;숙제강요부분&amp;quot;]}}, :object-type :shape, :only-block-tag :p, :style {:color :dark-green, :deco :fill}, :hitboxes nil, :gfx [:g [:rect {:x -444, :y 814, :width 192, :height 96, :rx 3, :ry 3, :fill &amp;quot;#207868&amp;quot;}] [:g.content [:g [:g [:g [:g nil [:g nil] [:text {:fill &amp;quot;#FFFFFF&amp;quot;} [:tspan {:x -402, :y 868.5, :font-family &amp;quot;DIN Next, sans-serif&amp;quot;, :font-size 18, :font-style :normal, :font-weight :normal} &amp;quot;숙제강요부분&amp;quot;]]]]]]]], :marks #{}, :order [18], :rect {:x -444, :y 814, :width 192, :height 96}, :ref-item-deps nil}} {:deleted nil, :workspace-id #uuid &amp;quot;bb9c6126-cc52-4984-8532-ed0b203b17b8&amp;quot;, :owned? true, :item-id #uuid &amp;quot;b7e89a46-48b3-4f11-a034-e4df8938dd7d&amp;quot;, :created #inst &amp;quot;2023-09-20T04:39:48.507-00:00&amp;quot;, :stag 140, :item-type :object, :parent-id #uuid &amp;quot;343fd05a-a7f6-4d36-b228-2cf3a70af404&amp;quot;, :access :readwrite, :data {:path #paper &amp;quot;[\&amp;quot;Path\&amp;quot;,{\&amp;quot;applyMatrix\&amp;quot;:true,\&amp;quot;segments\&amp;quot;:[[[-153,588],[0,0],[-1.65685,0]],[[-156,585],[0,1.65685],[0,0]],[[-156,495],[0,0],[0,-1.65685]],[[-153,492],[-1.65685,0],[0,0]],[[33,492],[0,0],[1.65685,0]],[[36,495],[0,-1.65685],[0,0]],[[36,585],[0,0],[0,1.65685]],[[33,588],[1.65685,0],[0,0]]],\&amp;quot;closed\&amp;quot;:true}]&amp;quot;, :text-rect {:x -144, :y 528, :width 168, :height 24}, :shape-type :rect, :v 44, :content {#uuid &amp;quot;390841d6-1492-4cd4-89f4-410a14859f5e&amp;quot; {:tag :p, :idx &amp;quot;12/;F`6/&amp;quot;, :content [&amp;quot;협박(문자메시지)&amp;quot;]}}, :object-type :shape, :only-block-tag :p, :style {:color :silver, :deco :fill}, :hitboxes nil, :gfx [:g [:rect {:x -156, :y 492, :width 192, :height 96, :rx 3, :ry 3, :fill &amp;quot;#788896&amp;quot;}] [:g.content [:g [:g [:g [:g nil [:g nil] [:text {:fill &amp;quot;#FFFFFF&amp;quot;} [:tspan {:x -128.12998962402344, :y 546.5, :font-family &amp;quot;DIN Next, sans-serif&amp;quot;, :font-size 18, :font-style :normal, :font-weight :normal} &amp;quot;협박(문자메시지)&amp;quot;]]]]]]]], :marks #{}, :order [8 1], :rect {:x -156, :y 492, :width 192, :height 96}, :ref-item-deps nil}} {:deleted nil, :workspace-id #uuid &amp;quot;bb9c6126-cc52-4984-8532-ed0b203b17b8&amp;quot;, :owned? true, :item-id #uuid &amp;quot;84996c45-4c00-47d5-8e9d-6c7b502d938c&amp;quot;, :created #inst &amp;quot;2023-09-20T05:43:49.326-00:00&amp;quot;, :stag 131, :item-type :object, :parent-id #uuid &amp;quot;343fd05a-a7f6-4d36-b228-2cf3a70af404&amp;quot;, :access :readwrite, :data {:text-anchor {:x 84, :y 862}, :path #paper &amp;quot;[\&amp;quot;Path\&amp;quot;,{\&amp;quot;applyMatrix\&amp;quot;:true,\&amp;quot;segments\&amp;quot;:[[44,862],[124,862]]}]&amp;quot;, :to-id #uuid &amp;quot;ccf55881-0cd9-4ac4-ad06-571ceee103eb&amp;quot;, :from-id #uuid &amp;quot;e9cf9000-9a35-465e-88cf-2173711c40ac&amp;quot;, :v 44, :to-rel {:rx 0.5, :ry 0.5, :a :x}, :from-rel {:rx 0.5, :ry 0.5, :a :x}, :object-type :connector, :points [], :to-endpoint :arrow, :style {:color :silver}, :to-pos {:x 124, :y 862}, :gfx [:g {} [:line {:stroke &amp;quot;#788896&amp;quot;, :fill :none, :stroke-linejoin :round, :y1 862, :stroke-linecap :round, :stroke-width 4, :x1 44.00000000000003, :y2 862, :x2 120.00000000000009}] nil [:polygon {:points &amp;quot;116.9079,856.45905 124,862 116.9079,867.54095&amp;quot;, :fill &amp;quot;#788896&amp;quot;, :stroke &amp;quot;#788896&amp;quot;, :stroke-width 2, :stroke-linecap :round, :stroke-linejoin :round}]], :baseline-path #paper &amp;quot;[\&amp;quot;Path\&amp;quot;,{\&amp;quot;applyMatrix\&amp;quot;:true,\&amp;quot;segments\&amp;quot;:[[-60,862],[228,862]]}]&amp;quot;, :order [21], :from-pos {:x 44, :y 862}, :connector-type :elbow, :cont-path #paper &amp;quot;[\&amp;quot;Path\&amp;quot;,{\&amp;quot;applyMatrix\&amp;quot;:true,\&amp;quot;segments\&amp;quot;:[[44,862],[124,862]]}]&amp;quot;, :rect {:x 40, :y 858, :width 89, :height 8}, :edges [{:y 862, :offset 288}], :text &amp;quot;&amp;quot;}} {:deleted nil, :workspace-id #uuid &amp;quot;bb9c6126-cc52-4984-8532-ed0b203b17b8&amp;quot;, :owned? true, :item-id #uuid &amp;quot;30615bf0-581d-46ff-9a25-14a86ecdf98e&amp;quot;, :created #inst &amp;quot;2023-09-20T06:21:40.532-00:00&amp;quot;, :stag 141, :item-type :object, :parent-id #uuid &amp;quot;343fd05a-a7f6-4d36-b228-2cf3a70af404&amp;quot;, :access :readwrite, :data {:path #paper &amp;quot;[\&amp;quot;Path\&amp;quot;,{\&amp;quot;applyMatrix\&amp;quot;:true,\&amp;quot;segments\&amp;quot;:[[[-153,732],[0,0],[-1.65685,0]],[[-156,729],[0,1.65685],[0,0]],[[-156,639],[0,0],[0,-1.65685]],[[-153,636],[-1.65685,0],[0,0]],[[33,636],[0,0],[1.65685,0]],[[36,639],[0,-1.65685],[0,0]],[[36,729],[0,0],[0,1.65685]],[[33,732],[1.65685,0],[0,0]]],\&amp;quot;closed\&amp;quot;:true}]&amp;quot;, :text-rect {:x -144, :y 672, :width 168, :height 24}, :shape-type :rect, :v 44, :content {#uuid &amp;quot;62717b7d-a7ed-48ca-9b8c-8d3e602177b8&amp;quot; {:tag :p, :idx &amp;quot;12/;F`6/&amp;quot;, :content []}}, :object-type :shape, :only-block-tag :p, :style {:color :blue, :deco :fill}, :hitboxes nil, :gfx [:g [:rect {:x -156, :y 636, :width 192, :height 96, :rx 3, :ry 3, :fill &amp;quot;#2C88D9&amp;quot;}] nil], :marks #{}, :order [8 0], :rect {:x -156, :y 636, :width 192, :height 96}, :ref-item-deps nil}}], :copy-id #uuid &amp;quot;e191aafb-a608-4dc7-bac8-5f13f24c46d4&amp;quot;}&quot;&gt;&lt;/span&gt;&lt;img src=&quot;https://imgr.whimsical.com/object/9ufUTAeLfivtQtBNtX66Je&quot;&gt;" style="text;whiteSpace=wrap;html=1;" vertex="1" parent="1">
          <mxGeometry x="150" y="130" width="560" height="2180" as="geometry" />
        </mxCell>
      </root>
    </mxGraphModel>
  </diagram>
</mxfile>
